<?xml version="1.0" standalone="no"?>
<!DOCTYPE svg PUBLIC "-//W3C//DTD SVG 20010904//EN"
 "http://www.w3.org/TR/2001/REC-SVG-20010904/DTD/svg10.dtd">
<svg version="1.0" xmlns="http://www.w3.org/2000/svg"
 width="676.000000pt" height="701.000000pt" viewBox="0 0 676.000000 701.000000"
 preserveAspectRatio="xMidYMid meet">

<g transform="translate(0.000000,701.000000) scale(0.100000,-0.100000)"
fill="#000000" stroke="none">
<path d="M1535 5467 c-3 -6 -4 -174 -3 -372 l3 -360 123 -3 122 -3 0 -119 0
-120 -125 0 -125 0 0 -125 0 -125 -120 0 -120 0 0 -740 0 -740 120 0 120 0 0
-125 0 -125 125 0 125 0 0 -125 0 -125 125 0 125 0 0 -120 0 -120 493 -2 492
-3 3 -122 3 -123 -126 0 -125 0 0 -125 0 -125 -125 0 -125 0 0 -125 0 -125
-245 0 -245 0 0 125 0 125 -125 0 -125 0 0 125 0 125 -125 0 -125 0 0 125 0
125 -245 0 -245 0 0 -125 0 -124 123 -3 122 -3 3 -122 3 -123 119 0 119 0 3
-122 3 -123 123 -3 122 -3 0 -119 0 -120 495 0 495 0 0 -515 0 -515 740 0 740
0 0 760 0 759 -122 3 -123 3 -3 123 -3 122 -119 0 -120 0 0 125 0 125 495 0
495 0 0 120 0 120 120 0 120 0 0 125 0 125 125 0 125 0 0 125 0 125 125 0 125
0 0 740 0 740 -125 0 -125 0 0 125 0 125 -125 0 -125 0 0 120 0 120 125 0 125
0 0 375 0 375 -370 0 -370 0 0 -125 0 -125 -125 0 -125 0 0 -125 0 -126 -122
3 -123 3 -3 123 -3 122 -614 0 -615 0 0 -125 0 -125 -125 0 -125 0 0 125 0
125 -125 0 -125 0 0 125 0 125 -365 0 c-284 0 -367 -3 -370 -13z"/>
</g>
</svg>
